# xmcd
#
# Track frame offsets:
#	150
#	12793
#	23776
#	33373
#	49982
#	63782
#	77533
#	93358
#	105076
#	126692
#	141577
#	156544
#	197110
#	212318
#	222603
#	235420
#	249617
#	264227
#
# Disc length: 3723 seconds
#
# Revision: 1
# Processed by: cddbd v1.5.2PL0 Copyright (c) Steve Scherf et al.
# Submitted via: audiograbber 1.83.01
#
DISCID=fd0e8912
DTITLE=James Brown - Fine Old Foxy Self - The 60s
DYEAR=2006
DGENRE=Soul
TTITLE0=Think
TTITLE1=Cross Firing
TTITLE2=Love Don't Love Nobody
TTITLE3=Night Train
TTITLE4=Shout and Shimmy
TTITLE5=Three Hearts In A Tangle
TTITLE6=Ain't That A Groove
TTITLE7=Wee Wee
TTITLE8=Who's Afraid of Virginia Woolf
TTITLE9=It's A Man's Man's Man's World
TTITLE10=Let's Go Get Stoned
TTITLE11=Get It Together Parts 1 and 2
TTITLE12=America Is My Home
TTITLE13=Shhh (For A Little While)
TTITLE14=Licking Stick
TTITLE15=Give It Up Or Turnit A Loose
TTITLE16=I Don't Nobody to Give Me Nothing
TTITLE17=Sunny
EXTD=
EXTT0=
EXTT1=
EXTT2=
EXTT3=
EXTT4=
EXTT5=
EXTT6=
EXTT7=
EXTT8=
EXTT9=
EXTT10=
EXTT11=
EXTT12=
EXTT13=
EXTT14=
EXTT15=
EXTT16=
EXTT17=
PLAYORDER=
